# xmcd
#
# Track frame offsets:
#	150
#	21225
#	36450
#	62175
#
# Disc length: 1102 seconds
#
# Revision: 1
# Processed by: cddbd v1.5.2PL0 Copyright (c) Steve Scherf et al.
# Submitted via: audiograbber 1.83.01
#
DISCID=34044c04
DTITLE=Working Blues Band - Harlem Nocturne
DYEAR=1900
DGENRE=Blues
TTITLE0=Harlem Nocturne
TTITLE1=San Francisco Bay
TTITLE2=Leave My Woman Alone
TTITLE3=Mystery Train
EXTD=
EXTT0=
EXTT1=
EXTT2=
EXTT3=
PLAYORDER=
